<svg width="43" height="43" viewBox="0 0 43 43" fill="none" xmlns="http://www.w3.org/2000/svg">
<g clip-path="url(#clip0_30_12)">
<path d="M21.4999 0.859985C10.1006 0.859985 0.859863 10.1007 0.859863 21.5C0.859863 32.8993 10.1006 42.14 21.4999 42.14C32.8992 42.14 42.1399 32.8993 42.1399 21.5C42.1399 10.1007 32.8992 0.859985 21.4999 0.859985ZM29.8956 17.7676C29.9042 17.9439 29.9064 18.1202 29.9064 18.2922C29.9064 23.6672 25.8192 29.8613 18.3415 29.8613C16.1319 29.865 13.9683 29.2304 12.1108 28.0338C12.4269 28.0725 12.7515 28.0876 13.0805 28.0876C14.9854 28.0876 16.7376 27.4404 18.1287 26.3482C17.281 26.3316 16.4596 26.0509 15.779 25.5452C15.0983 25.0396 14.5924 24.3342 14.3318 23.5274C14.9405 23.6432 15.5677 23.6189 16.1657 23.4565C15.2456 23.2704 14.4182 22.7719 13.8237 22.0454C13.2293 21.3189 12.9044 20.4091 12.9042 19.4704V19.4209C13.4524 19.7241 14.0802 19.909 14.7467 19.9305C13.8841 19.3563 13.2735 18.4742 13.0397 17.4647C12.8059 16.4552 12.9666 15.3945 13.489 14.4996C14.5101 15.7552 15.7836 16.7823 17.2269 17.5146C18.6702 18.2468 20.2512 18.6677 21.8675 18.7501C21.662 17.8779 21.7505 16.9622 22.1191 16.1454C22.4877 15.3286 23.1158 14.6565 23.9059 14.2336C24.6959 13.8106 25.6035 13.6605 26.4876 13.8066C27.3718 13.9527 28.1828 14.3868 28.7948 15.0414C29.7046 14.8614 30.5771 14.5277 31.3748 14.0545C31.0716 14.9965 30.4367 15.7964 29.5882 16.3056C30.3941 16.2085 31.181 15.9919 31.9231 15.6627C31.378 16.4795 30.6914 17.1923 29.8956 17.7676Z" fill="#787878"/>
</g>
<defs>
<clipPath id="clip0_30_12">
<rect width="43" height="43" fill="white"/>
</clipPath>
</defs>
</svg>
