<svg width="57" height="54" viewBox="0 0 57 54" fill="none" xmlns="http://www.w3.org/2000/svg">
<path d="M20.1401 29.565H21.8739V37.6875H23.5364V29.565H25.2701V28.1925H20.1401V29.565ZM28.9039 36C28.6189 36.315 27.6451 36.945 27.6451 36.045V30.6675H26.1726V36.54C26.1726 38.3175 28.0489 37.845 28.9276 36.9225V37.6875H30.4001V30.6675H28.9276V36H28.9039ZM34.3901 30.6225C33.5351 30.6225 32.9889 31.23 32.9889 31.23V28.17H31.4926V37.6875H32.9889V37.1475C32.9889 37.1475 33.4876 37.7775 34.3901 37.7775C35.1739 37.7775 35.7676 37.125 35.7676 36.225V32.3325C35.7676 31.275 35.2451 30.6225 34.3901 30.6225ZM34.2239 36.045C34.2239 36.5625 33.8439 36.81 33.3451 36.6075C33.2105 36.5478 33.0894 36.4637 32.9889 36.36V31.995C33.0839 31.905 33.2026 31.8375 33.2976 31.77C33.8201 31.5225 34.2239 31.905 34.2239 32.4225V36.045ZM39.7101 35.685C39.7101 36.225 39.4014 36.585 39.0451 36.6075C38.6651 36.63 38.2851 36.3375 38.2851 35.685V34.3575H41.1114V32.5575C41.1187 32.2834 41.0677 32.0107 40.9617 31.7556C40.8556 31.5005 40.6965 31.2682 40.4939 31.0725C40.0854 30.7194 39.5506 30.5264 38.9976 30.5325C38.4751 30.5325 37.9289 30.69 37.5014 31.005C37.0501 31.3425 36.7651 31.86 36.7651 32.5575V35.7075C36.7651 36.3375 36.9789 36.8325 37.3114 37.1925C37.7151 37.5975 38.2614 37.8225 38.8314 37.845C39.5201 37.8675 40.2564 37.5975 40.6839 37.035C40.9451 36.6975 41.1114 36.2475 41.1114 35.7075V35.3475H39.7101V35.685ZM38.2851 32.5575C38.2851 32.175 38.5226 31.725 38.9739 31.725C39.4251 31.725 39.7101 32.13 39.7101 32.5575V33.2775H38.2851V32.5575Z" fill="#787878"/>
<path d="M30.8037 6.75C27.9966 6.75015 25.2169 7.2741 22.6235 8.29196C20.0301 9.30981 17.6737 10.8016 15.6888 12.6822C13.704 14.5628 12.1295 16.7954 11.0554 19.2524C9.98131 21.7094 9.42856 24.3428 9.42871 27.0022C9.42887 29.6617 9.98193 32.295 11.0563 34.7519C12.1307 37.2089 13.7054 39.4412 15.6905 41.3216C17.6756 43.202 20.0321 44.6936 22.6257 45.7112C25.2192 46.7287 27.9989 47.2524 30.8061 47.2522C36.4754 47.2519 41.9124 45.1181 45.921 41.32C49.9296 37.522 52.1814 32.3709 52.1811 27C52.1808 21.6291 49.9283 16.4782 45.9193 12.6806C41.9103 8.88301 36.473 6.7497 30.8037 6.75ZM34.5562 14.3325H36.4562V20.3625C36.4562 20.745 36.6462 20.745 36.7175 20.745C37.0025 20.745 37.43 20.4525 37.6437 20.25V14.31H39.5437V22.275H37.6437V21.5775C37.3825 21.8025 37.1212 21.9825 36.86 22.1175C36.5037 22.2975 36.1712 22.365 35.8387 22.365C35.6567 22.3733 35.475 22.3432 35.3066 22.2771C35.1382 22.211 34.9874 22.1104 34.865 21.9825C34.6512 21.735 34.5562 21.3525 34.5562 20.88V14.3325ZM28.5 16.425C28.5 15.1875 29.5687 14.175 30.875 14.175C32.1812 14.175 33.25 15.1875 33.25 16.425V20.25C33.25 21.4875 32.1812 22.5 30.875 22.5C29.5687 22.5 28.5 21.4875 28.5 20.25V16.425ZM23.56 11.5875L24.7 15.5475L25.8637 11.5875H28.025L25.7925 17.8425V22.275H23.6787V17.8425L21.3987 11.5875H23.56ZM42.3225 39.8025C41.1112 40.9275 30.8512 40.95 30.8512 40.95C30.8512 40.95 20.615 40.9275 19.38 39.8025C18.1687 38.6775 18.1687 33.075 18.1687 33.03C18.1687 33.0075 18.1687 27.405 19.38 26.2575C20.5912 25.1325 30.8512 25.11 30.8512 25.11C30.8512 25.11 41.0875 25.1325 42.3225 26.2575C43.5337 27.3825 43.5575 32.985 43.5575 33.03C43.5575 33.03 43.5575 38.655 42.3225 39.8025Z" fill="#787878"/>
<path d="M30.8273 21.0375C31.2311 21.0375 31.4211 20.8125 31.4448 20.4525V16.1775C31.4448 15.885 31.1361 15.6375 30.8511 15.6375C30.5661 15.6375 30.2573 15.8625 30.2573 16.1775V20.4525C30.2573 20.79 30.4236 21.015 30.8273 21.0375Z" fill="#787878"/>
</svg>
