<svg width="63" height="60" viewBox="0 0 63 60" fill="none" xmlns="http://www.w3.org/2000/svg">
<path d="M58.0781 30C58.0819 25.7902 56.9832 21.6459 54.8814 17.9425C52.7795 14.239 49.741 11.0932 46.0409 8.79004C42.3408 6.48684 38.096 5.09891 33.6907 4.75191C29.2855 4.40491 24.8589 5.1098 20.8117 6.80276C16.7646 8.49572 13.2247 11.1233 10.5126 14.4476C7.80049 17.7719 6.00176 21.6879 5.27929 25.8411C4.55681 29.9943 4.9334 34.2535 6.37496 38.2332C7.81651 42.2129 10.2775 45.7873 13.5352 48.6328C13.6542 48.7618 13.7861 48.8795 13.9289 48.9844C18.7806 53.0625 25.0289 55.313 31.5 55.313C37.9711 55.313 44.2194 53.0625 49.0711 48.9844C49.2139 48.8795 49.3458 48.7618 49.4648 48.6328C52.1802 46.2668 54.3484 43.3881 55.8314 40.1801C57.3143 36.9721 58.0795 33.5051 58.0781 30ZM10.8281 30C10.8207 26.8575 11.6033 23.759 13.1104 20.9635C14.6176 18.168 16.8054 15.7566 19.4912 13.9311C22.1769 12.1056 25.2825 10.9188 28.5483 10.4702C31.8141 10.0215 35.1453 10.3238 38.2633 11.352C41.3813 12.3801 44.1956 14.1042 46.4709 16.38C48.7462 18.6559 50.4164 21.4174 51.342 24.4337C52.2675 27.45 52.4214 30.6335 51.7909 33.7181C51.1603 36.8027 49.7636 39.6987 47.7176 42.1641C45.8069 39.8529 43.3766 37.9788 40.6055 36.6797C42.379 34.9692 43.5819 32.7974 44.0626 30.4374C44.5434 28.0775 44.2806 25.6349 43.3073 23.4168C42.334 21.1988 40.6938 19.3044 38.5928 17.972C36.4919 16.6396 34.0241 15.9287 31.5 15.9287C28.9759 15.9287 26.5081 16.6396 24.4072 17.972C22.3062 19.3044 20.6659 21.1988 19.6927 23.4168C18.7194 25.6349 18.4566 28.0775 18.9374 30.4374C19.4181 32.7974 20.621 34.9692 22.3945 36.6797C19.6234 37.9788 17.1931 39.8529 15.2824 42.1641C12.3971 38.7052 10.827 34.4176 10.8281 30ZM24.6094 28.125C24.6094 26.8271 25.0135 25.5583 25.7706 24.4791C26.5278 23.3999 27.604 22.5587 28.8631 22.062C30.1222 21.5653 31.5076 21.4354 32.8443 21.6886C34.1809 21.9418 35.4087 22.5668 36.3724 23.4846C37.3361 24.4024 37.9923 25.5717 38.2582 26.8447C38.5241 28.1177 38.3876 29.4372 37.8661 30.6364C37.3446 31.8355 36.4614 32.8604 35.3282 33.5815C34.1951 34.3026 32.8628 34.6875 31.5 34.6875C29.6745 34.6813 27.9256 33.9879 26.6348 32.7586C25.3439 31.5292 24.6159 29.8636 24.6094 28.125ZM19.5891 46.0781C20.9571 44.2912 22.7491 42.8374 24.8189 41.8351C26.8888 40.8328 29.178 40.3104 31.5 40.3104C33.822 40.3104 36.1112 40.8328 38.1811 41.8351C40.2509 42.8374 42.0429 44.2912 43.4109 46.0781C39.928 48.425 35.7665 49.6852 31.5 49.6852C27.2335 49.6852 23.072 48.425 19.5891 46.0781Z" fill="black"/>
</svg>
